# xmcd CD database file generated by Grip 3.0.5
# 
# Track frame offsets:
#       182
#       25100
#       50680
#       64977
#       88257
#       113432
#       135535
#       159190
# 
# Disc length: 2328 seconds
# 
# Revision: 1
# Processed by: cddbd v1.4PL0 Copyright (c) Steve Scherf et al.
# Submitted via: Grip 3.0.5
# 
DISCID=61091608
DTITLE=Irek Dudek - No 1
DYEAR=1992
DGENRE=Blues
TTITLE0=Something Must Have Changed
TTITLE1=From Alojz To Alex
TTITLE2=Flute Tune
TTITLE3=Dudi Boogie
TTITLE4=The Blues
TTITLE5=Straight Blues
TTITLE6=One Day Hero
TTITLE7=Przebierka
EXTD=ID3G: 0
EXTT0=
EXTT1=
EXTT2=
EXTT3=
EXTT4=
EXTT5=
EXTT6=
EXTT7=
PLAYORDER=
